<svg width="43" height="43" viewBox="0 0 43 43" fill="none" xmlns="http://www.w3.org/2000/svg">
    <path d="M10.5573 21.0792C10.5597 18.2723 11.6768 15.5812 13.6628 13.5976L6.18125 6.09253C3.53059 8.6694 1.63846 11.9247 0.711239 15.5033C-0.727672 20.9142 0.0350854 26.6748 2.83264 31.5248C5.6302 36.3748 10.2348 39.9193 15.6391 41.3829L18.3682 31.2075C16.1399 30.6021 14.1705 29.2848 12.7604 27.4562C11.3502 25.6277 10.5765 23.3882 10.5573 21.0792V21.0792Z"
          fill="url(#paint0_linear)"/>
    <path d="M41.5187 15.5621L31.3198 18.2913C31.7928 20.0819 31.7877 21.9653 31.3052 23.7534C30.8227 25.5414 29.8796 27.1717 28.57 28.4812C27.2604 29.7908 25.6301 30.734 23.8421 31.2165C22.054 31.699 20.1706 31.7041 18.38 31.2311L15.6508 41.4065C19.2243 42.4113 23.0056 42.4113 26.5791 41.4065C31.9777 39.945 36.5789 36.407 39.3779 31.5648C42.177 26.7227 42.9466 20.9697 41.5187 15.5621V15.5621Z"
          fill="url(#paint1_linear)"/>
    <path d="M21.1209 10.4921C23.442 10.496 25.6976 11.2626 27.5404 12.6739C29.3832 14.0853 30.7111 16.0631 31.3198 18.3031L41.5187 15.5739C40.5915 11.9953 38.6994 8.74004 36.0487 6.16317C32.081 2.21586 26.7118 0 21.115 0C15.5182 0 10.149 2.21586 6.18125 6.16317L13.6511 13.633C14.6289 12.6446 15.7919 11.8585 17.0736 11.3196C18.3552 10.7807 19.7305 10.4995 21.1209 10.4921Z"
          fill="url(#paint2_linear)"/>
    <defs>
        <linearGradient id="paint0_linear" x1="0.709712" y1="26.4872" x2="21.1138" y2="21.0222"
                        gradientUnits="userSpaceOnUse">
            <stop stop-color="#FFCD34"/>
            <stop offset="1" stop-color="#EE2924"/>
        </linearGradient>
        <linearGradient id="paint1_linear" x1="36.053" y1="35.9614" x2="21.1138" y2="21.0223"
                        gradientUnits="userSpaceOnUse">
            <stop stop-color="#CCDB2A"/>
            <stop offset="1" stop-color="#036667"/>
        </linearGradient>
        <linearGradient id="paint2_linear" x1="21.1637" y1="20.8393" x2="26.6287" y2="0.435176"
                        gradientUnits="userSpaceOnUse">
            <stop stop-color="#21205F"/>
            <stop offset="1" stop-color="#69C9CA"/>
        </linearGradient>
    </defs>
</svg>
